# ProBuilder 5.0.3
# https://unity3d.com/unity/features/worldbuilding/probuilder
# 8/16/2022 5:03:12 PM

mtllib ./SegmentV1.mtl
o SegmentV1

g SegmentV1
v -1.767767 -0.5 1.767767
v -2.5 -0.5 0
v -1.767767 0 1.767767
v -2.5 0 0
v -2.3 -0.5 0
v -1.626346 -0.5 1.626346
v -2.3 0 0
v -1.626346 0 1.626346
v 0 -0.5 2.5
v 0 0 2.5
v 0 -0.5 2.3
v 0 0 2.3
v 1.767767 -0.5 1.767767
v 1.767767 0 1.767767
v 1.626346 -0.5 1.626346
v 1.626346 0 1.626346
v 2.5 -0.5 -2.185569E-07
v 2.5 0 -2.185569E-07
v 2.3 -0.5 -2.010724E-07
v 2.3 0 -2.010724E-07
v 1.767767 -0.5 -1.767767
v 1.767767 0 -1.767767
v 1.626346 -0.5 -1.626345
v 1.626346 0 -1.626345
v 0 -0.5 -2.5
v 0 0 -2.5
v 0 -0.5 -2.3
v 0 0 -2.3
v -1.767767 -0.5 -1.767767
v -1.767767 0 -1.767767
v -1.626345 -0.5 -1.626346
v -1.626345 0 -1.626346
v -1.767767 0.5 1.767767
v -2.5 0.5 0
v -2.3 0.5 0
v -1.626346 0.5 1.626346
v 0 0.5 2.5
v 0 0.5 2.3
v 1.767767 0.5 1.767767
v 1.626346 0.5 1.626346
v 2.5 0.5 -2.185569E-07
v 2.3 0.5 -2.010724E-07
v 1.767767 0.5 -1.767767
v 1.626346 0.5 -1.626345
v 0 0.5 -2.5
v 0 0.5 -2.3
v -1.767767 0.5 -1.767767
v -1.626345 0.5 -1.626346

vt 0.9567086 -0.5
vt -0.9567086 -0.5
vt 0.9567086 0
vt -0.9567086 0
vt 0.880172 -0.5
vt -0.8801718 -0.5
vt 0.880172 0
vt -0.8801718 0
vt 0.9567086 0.5
vt -0.9567086 0.5
vt 0.880172 0.5
vt -0.8801718 0.5
vt -2.5 0
vt -1.767767 1.767767
vt -2.3 0
vt -1.626346 1.626346
vt 1.767767 1.767767
vt 2.5 0
vt 1.626346 1.626346
vt 2.3 0
vt 0 2.5
vt 0 2.3
vt 2.3 -2.010724E-07
vt -2.3 -2.010724E-07
vt 1.767767 -1.767767
vt 1.626346 -1.626345
vt -1.767767 -1.767767
vt -1.626346 -1.626345
vt 0 -2.5
vt 0 -2.3

vn -0.9238795 0 0.3826834
vn 0.9238796 0 -0.3826835
vn -0.3826834 0 0.9238795
vn 0.3826835 0 -0.9238796
vn 0.3826834 0 0.9238795
vn -0.3826835 0 -0.9238796
vn 0.9238796 0 0.3826834
vn -0.9238795 0 -0.3826835
vn 0 -1 0
vn 0 1 0

usemtl SegmentV1
f 3/3/1 4/4/1 2/2/1 1/1/1
f 7/7/2 8/8/2 6/6/2 5/5/2
f 10/3/3 3/4/3 1/2/3 9/1/3
f 8/7/4 12/8/4 11/6/4 6/5/4
f 14/3/5 10/4/5 9/2/5 13/1/5
f 12/7/6 16/8/6 15/6/6 11/5/6
f 18/3/7 14/4/7 13/2/7 17/1/7
f 16/7/8 20/8/8 19/6/8 15/5/8
f 22/3/2 18/4/2 17/2/2 21/1/2
f 20/7/1 24/8/1 23/6/1 19/5/1
f 26/3/4 22/4/4 21/2/4 25/1/4
f 24/7/3 28/8/3 27/6/3 23/5/3
f 30/3/6 26/4/6 25/2/6 29/1/6
f 28/7/5 32/8/5 31/6/5 27/5/5
f 4/3/8 30/4/8 29/2/8 2/1/8
f 32/7/7 7/8/7 5/6/7 31/5/7
f 33/9/1 34/10/1 4/4/1 3/3/1
f 35/11/2 36/12/2 8/8/2 7/7/2
f 37/9/3 33/10/3 3/4/3 10/3/3
f 36/11/4 38/12/4 12/8/4 8/7/4
f 39/9/5 37/10/5 10/4/5 14/3/5
f 38/11/6 40/12/6 16/8/6 12/7/6
f 41/9/7 39/10/7 14/4/7 18/3/7
f 40/11/8 42/12/8 20/8/8 16/7/8
f 43/9/2 41/10/2 18/4/2 22/3/2
f 42/11/1 44/12/1 24/8/1 20/7/1
f 45/9/4 43/10/4 22/4/4 26/3/4
f 44/11/3 46/12/3 28/8/3 24/7/3
f 47/9/6 45/10/6 26/4/6 30/3/6
f 46/11/5 48/12/5 32/8/5 28/7/5
f 34/9/8 47/10/8 30/4/8 4/3/8
f 48/11/7 35/12/7 7/8/7 32/7/7
f 5/15/9 6/16/9 1/14/9 2/13/9
f 36/19/10 35/20/10 34/18/10 33/17/10
f 6/16/9 11/22/9 9/21/9 1/14/9
f 38/22/10 36/19/10 33/17/10 37/21/10
f 11/22/9 15/19/9 13/17/9 9/21/9
f 40/16/10 38/22/10 37/21/10 39/14/10
f 15/19/9 19/23/9 17/18/9 13/17/9
f 42/24/10 40/16/10 39/14/10 41/13/10
f 19/23/9 23/26/9 21/25/9 17/18/9
f 44/28/10 42/24/10 41/13/10 43/27/10
f 23/26/9 27/30/9 25/29/9 21/25/9
f 46/30/10 44/28/10 43/27/10 45/29/10
f 27/30/9 31/28/9 29/27/9 25/29/9
f 48/26/10 46/30/10 45/29/10 47/25/10
f 31/28/9 5/15/9 2/13/9 29/27/9
f 35/20/10 48/26/10 47/25/10 34/18/10

